# xmcd
#
# Track frame offsets:
#       150
#       19163
#       34909
#       57414
#       80044
#       98086
#       118050
#       137695
#       154964
#       171535
#       190776
#       208192
#       227260
#       249864
#       272612
#       290590
#       310593
#       330096
#
# Disc length: 4631 seconds
#
# Revision: 0
# Processed by: cddbd v1.5.2PL0 Copyright (c) Steve Scherf et al.
# Submitted via: WaveLab 4.01
#
DISCID=f7121512
DTITLE=FERNANDO OLIVEIRA - A PAGINA VIROU
DYEAR=1900
DGENRE=
TTITLE0=VIRA VOLTA
TTITLE1=FAZ TEMPO
TTITLE2=ADORANDO EU VOU
TTITLE3=TO VIVO
TTITLE4=VAI DAR O QUE FALAR
TTITLE5=V DE VITORIA
TTITLE6=A PAGINA VIROU
TTITLE7=VAO PAGAR PRA VER
TTITLE8=TE ADORAREI
TTITLE9=DEUS VAI
TTITLE10=MERGULHANDO NA SANTIDADE
TTITLE11=VIRA VOLTA - PB
TTITLE12=ADORANDO EU VOU - PB
TTITLE13=TO VIVO - PB
TTITLE14=VAI DAR O QUE FALAR - PB
TTITLE15=V DE VITORIA - PB
TTITLE16=A PAGINA VIROU - PB
TTITLE17=VAO PAGAR PRA VER - PB
EXTD=
EXTT0=
EXTT1=
EXTT2=
EXTT3=
EXTT4=
EXTT5=
EXTT6=
EXTT7=
EXTT8=
EXTT9=
EXTT10=
EXTT11=
EXTT12=
EXTT13=
EXTT14=
EXTT15=
EXTT16=
EXTT17=
PLAYORDER=
